<svg width="446" height="198" viewBox="0 0 446 198" fill="none" xmlns="http://www.w3.org/2000/svg">
<path d="M13.75 50.8696H184.25V149.375H13.75V50.8696Z" fill="#D0CFCE"/>
<path opacity="0.999" d="M33 68.75H24.75V77H33V68.75Z" fill="#9B9B9A" stroke="#9B9B9A" stroke-width="2" stroke-linecap="round" stroke-linejoin="round"/>
<path opacity="0.999" d="M173.25 68.75H165V77H173.25V68.75Z" fill="#9B9B9A" stroke="#9B9B9A" stroke-width="2" stroke-linecap="round" stroke-linejoin="round"/>
<path opacity="0.999" d="M53.0476 68.75H44.7976V77H53.0476V68.75Z" fill="#9B9B9A" stroke="#9B9B9A" stroke-width="2" stroke-linecap="round" stroke-linejoin="round"/>
<path opacity="0.999" d="M73.0674 68.75H64.8174V77H73.0674V68.75Z" fill="#9B9B9A" stroke="#9B9B9A" stroke-width="2" stroke-linecap="round" stroke-linejoin="round"/>
<path opacity="0.999" d="M93.115 68.75H84.865V77H93.115V68.75Z" fill="#9B9B9A" stroke="#9B9B9A" stroke-width="2" stroke-linecap="round" stroke-linejoin="round"/>
<path opacity="0.999" d="M113.135 68.75H104.885V77H113.135V68.75Z" fill="#9B9B9A" stroke="#9B9B9A" stroke-width="2" stroke-linecap="round" stroke-linejoin="round"/>
<path opacity="0.999" d="M133.183 68.75H124.933V77H133.183V68.75Z" fill="#9B9B9A" stroke="#9B9B9A" stroke-width="2" stroke-linecap="round" stroke-linejoin="round"/>
<path opacity="0.999" d="M153.202 68.75H144.952V77H153.202V68.75Z" fill="#9B9B9A" stroke="#9B9B9A" stroke-width="2" stroke-linecap="round" stroke-linejoin="round"/>
<path opacity="0.999" d="M64.625 94.875H56.375V103.125H64.625V94.875Z" fill="#9B9B9A" stroke="#9B9B9A" stroke-width="2" stroke-linecap="round" stroke-linejoin="round"/>
<path opacity="0.999" d="M141.625 94.875H133.375V103.125H141.625V94.875Z" fill="#9B9B9A" stroke="#9B9B9A" stroke-width="2" stroke-linecap="round" stroke-linejoin="round"/>
<path opacity="0.999" d="M33 121H24.75V129.25H33V121Z" fill="#9B9B9A" stroke="#9B9B9A" stroke-width="2" stroke-linecap="round" stroke-linejoin="round"/>
<path opacity="0.999" d="M52.25 121H44V129.25H52.25V121Z" fill="#9B9B9A" stroke="#9B9B9A" stroke-width="2" stroke-linecap="round" stroke-linejoin="round"/>
<path opacity="0.999" d="M154 121H145.75V129.25H154V121Z" fill="#9B9B9A" stroke="#9B9B9A" stroke-width="2" stroke-linecap="round" stroke-linejoin="round"/>
<path opacity="0.999" d="M173.25 121H165V129.25H173.25V121Z" fill="#9B9B9A" stroke="#9B9B9A" stroke-width="2" stroke-linecap="round" stroke-linejoin="round"/>
<path opacity="0.999" d="M122.375 94.875H114.125V103.125H122.375V94.875Z" fill="#9B9B9A" stroke="#9B9B9A" stroke-width="2" stroke-linecap="round" stroke-linejoin="round"/>
<path opacity="0.999" d="M103.125 94.875H94.875V103.125H103.125V94.875Z" fill="#9B9B9A" stroke="#9B9B9A" stroke-width="2" stroke-linecap="round" stroke-linejoin="round"/>
<path opacity="0.999" d="M83.875 94.875H75.625V103.125H83.875V94.875Z" fill="#9B9B9A" stroke="#9B9B9A" stroke-width="2" stroke-linecap="round" stroke-linejoin="round"/>
<path opacity="0.999" d="M134.943 121H63.0576V129.25H134.943V121Z" fill="#9B9B9A" stroke="#9B9B9A" stroke-width="2" stroke-linecap="round" stroke-linejoin="round"/>
<path opacity="0.999" d="M45.375 94.875H24.75V103.125H45.375V94.875Z" fill="#9B9B9A" stroke="#9B9B9A" stroke-width="2" stroke-linecap="round" stroke-linejoin="round"/>
<path opacity="0.999" d="M173.25 94.875H152.625V103.125H173.25V94.875Z" fill="#9B9B9A" stroke="#9B9B9A" stroke-width="2" stroke-linecap="round" stroke-linejoin="round"/>
<path d="M13.75 50.875H184.25V147.125H13.75V50.875Z" stroke="black" stroke-width="2" stroke-miterlimit="10" stroke-linecap="round" stroke-linejoin="round"/>
<path d="M24.75 129.25H33V121" stroke="black" stroke-width="2" stroke-miterlimit="10" stroke-linecap="round" stroke-linejoin="round"/>
<path d="M63.0576 129.25H134.943V121" stroke="black" stroke-width="2" stroke-miterlimit="10" stroke-linecap="round" stroke-linejoin="round"/>
<path d="M44 129.25H52.25V121" stroke="black" stroke-width="2" stroke-miterlimit="10" stroke-linecap="round" stroke-linejoin="round"/>
<path d="M145.75 129.25H154V121" stroke="black" stroke-width="2" stroke-miterlimit="10" stroke-linecap="round" stroke-linejoin="round"/>
<path d="M165 129.25H173.25V121" stroke="black" stroke-width="2" stroke-miterlimit="10" stroke-linecap="round" stroke-linejoin="round"/>
<path d="M152.625 103.125H173.25V94.875" stroke="black" stroke-width="2" stroke-miterlimit="10" stroke-linecap="round" stroke-linejoin="round"/>
<path d="M44.7976 77H53.0476V68.75" stroke="black" stroke-width="2" stroke-miterlimit="10" stroke-linecap="round" stroke-linejoin="round"/>
<path d="M64.8174 77H73.0674V68.75" stroke="black" stroke-width="2" stroke-miterlimit="10" stroke-linecap="round" stroke-linejoin="round"/>
<path d="M84.865 77H93.115V68.75" stroke="black" stroke-width="2" stroke-miterlimit="10" stroke-linecap="round" stroke-linejoin="round"/>
<path d="M104.885 77H113.135V68.75" stroke="black" stroke-width="2" stroke-miterlimit="10" stroke-linecap="round" stroke-linejoin="round"/>
<path d="M124.933 77H133.183V68.75" stroke="black" stroke-width="2" stroke-miterlimit="10" stroke-linecap="round" stroke-linejoin="round"/>
<path d="M144.952 77H153.202V68.75" stroke="black" stroke-width="2" stroke-miterlimit="10" stroke-linecap="round" stroke-linejoin="round"/>
<path d="M165 77H173.25V68.75" stroke="black" stroke-width="2" stroke-miterlimit="10" stroke-linecap="round" stroke-linejoin="round"/>
<path d="M24.75 77H33V68.75" stroke="black" stroke-width="2" stroke-miterlimit="10" stroke-linecap="round" stroke-linejoin="round"/>
<path d="M24.75 103.125H45.375V94.875" stroke="black" stroke-width="2" stroke-miterlimit="10" stroke-linecap="round" stroke-linejoin="round"/>
<path d="M133.375 103.125H141.625V94.875" stroke="black" stroke-width="2" stroke-miterlimit="10" stroke-linecap="round" stroke-linejoin="round"/>
<path d="M114.125 103.125H122.375V94.875" stroke="black" stroke-width="2" stroke-miterlimit="10" stroke-linecap="round" stroke-linejoin="round"/>
<path d="M94.875 103.125H103.125V94.875" stroke="black" stroke-width="2" stroke-miterlimit="10" stroke-linecap="round" stroke-linejoin="round"/>
<path d="M75.625 103.125H83.875V94.875" stroke="black" stroke-width="2" stroke-miterlimit="10" stroke-linecap="round" stroke-linejoin="round"/>
<path d="M56.375 103.125H64.625V94.875" stroke="black" stroke-width="2" stroke-miterlimit="10" stroke-linecap="round" stroke-linejoin="round"/>
<path d="M209.501 100L218.033 73.36H224.297L232.829 100H227.249L223.433 86.14C222.641 83.368 221.885 80.272 221.129 77.428H220.985C220.265 80.308 219.509 83.368 218.717 86.14L214.901 100H209.501ZM214.793 93.16V89.056H227.465V93.16H214.793ZM239.784 100L231.612 73.36H237.228L240.72 86.32C241.548 89.308 242.16 91.936 242.988 94.96H243.168C244.032 91.936 244.608 89.308 245.4 86.32L248.856 73.36H254.292L246.12 100H239.784ZM257.393 100V73.36H262.721V100H257.393ZM289.04 69.364H300.956V73.252H293.288V92.368H289.04V69.364ZM336.344 75.664C335.984 76.132 335.3 76.996 334.976 77.5C333.284 80.308 329.864 84.88 326.3 87.4L322.556 84.412C325.472 82.648 328.28 79.48 329.216 77.716C327.02 77.716 312.692 77.716 310.424 77.716C308.948 77.716 307.724 77.788 306.032 77.968V72.928C307.436 73.144 308.948 73.324 310.424 73.324C312.692 73.324 327.956 73.324 329.828 73.324C330.836 73.324 332.816 73.18 333.5 73L336.344 75.664ZM321.692 80.488C321.692 89.416 321.476 96.76 311.684 102.052L307.472 98.632C308.66 98.236 309.956 97.624 311.288 96.616C315.824 93.448 316.688 89.668 316.688 83.764C316.688 82.612 316.652 81.676 316.472 80.488H321.692ZM365.324 70.192C366.224 71.524 367.52 73.792 368.204 75.124L365.288 76.384C364.568 74.908 363.452 72.748 362.48 71.38L365.324 70.192ZM369.86 68.896C370.796 70.228 372.128 72.532 372.776 73.792L369.896 75.016C369.176 73.504 367.988 71.416 367.016 70.048L369.86 68.896ZM357.764 71.056C357.584 72.604 357.512 73.36 357.512 74.368C357.512 75.34 357.512 78.22 357.512 79.552H352.508C352.508 78.004 352.508 75.34 352.508 74.368C352.508 73.36 352.472 72.604 352.22 71.056H357.764ZM369.896 78.652C369.608 79.444 369.32 80.812 369.176 81.532C368.564 84.988 367.592 88.444 365.828 91.72C362.948 97.048 357.548 100.864 351.14 102.52L347.396 98.2C349.016 97.912 350.996 97.372 352.472 96.796C355.46 95.68 358.628 93.556 360.644 90.64C362.48 88.012 363.416 84.592 363.848 81.388H345.992C345.992 82.648 345.992 85.528 345.992 86.644C345.992 87.472 346.028 88.624 346.1 89.308H341.132C341.24 88.408 341.312 87.256 341.312 86.284C341.312 85.132 341.312 81.388 341.312 80.056C341.312 79.264 341.276 77.824 341.132 76.96C342.356 77.104 343.436 77.14 344.804 77.14H363.776C365.288 77.14 366.152 76.96 366.764 76.744L369.896 78.652ZM377.816 89.776C382.532 88.732 387.86 86.32 390.704 84.592C394.232 82.468 397.832 79.264 399.704 76.924L403.268 80.416C401.108 82.756 396.752 86.14 392.828 88.444C389.588 90.352 384.044 92.764 379.94 93.988L377.816 89.776ZM390.308 87.436L395.204 86.5V99.28C395.204 100.576 395.24 102.484 395.456 103.204H390.092C390.2 102.484 390.308 100.576 390.308 99.28V87.436ZM422.924 103.312H411.008V99.424H418.676V80.308H422.924V103.312ZM248.156 126V115.938H250.298L250.514 117.27H250.568C251.414 116.406 252.35 115.686 253.646 115.686C255.104 115.686 255.95 116.316 256.418 117.432C257.354 116.478 258.326 115.686 259.64 115.686C261.782 115.686 262.754 117.198 262.754 119.718V126H260.108V120.06C260.108 118.476 259.676 117.954 258.704 117.954C258.128 117.954 257.498 118.314 256.778 119.07V126H254.132V120.06C254.132 118.476 253.682 117.954 252.71 117.954C252.152 117.954 251.486 118.314 250.802 119.07V126H248.156ZM267.972 126.252C266.172 126.252 265.002 124.992 265.002 123.264C265.002 121.122 266.748 119.988 270.798 119.538C270.744 118.548 270.33 117.81 269.088 117.81C268.152 117.81 267.234 118.206 266.316 118.764L265.362 117C266.55 116.28 267.972 115.686 269.574 115.686C272.13 115.686 273.444 117.198 273.444 120.132V126H271.284L271.086 124.938H271.014C270.132 125.694 269.124 126.252 267.972 126.252ZM268.836 124.182C269.592 124.182 270.15 123.84 270.798 123.21V121.176C268.332 121.482 267.522 122.148 267.522 123.066C267.522 123.84 268.062 124.182 268.836 124.182ZM276.141 126V115.938H278.283L278.499 117.72H278.553C279.273 116.388 280.371 115.686 281.415 115.686C281.955 115.686 282.279 115.758 282.585 115.902L282.135 118.17C281.775 118.08 281.505 118.008 281.073 118.008C280.299 118.008 279.345 118.548 278.787 120.006V126H276.141ZM283.998 126V111.654H286.59V120.258H286.68L290.1 115.938H293.016L289.56 120.078L293.322 126H290.46L288.012 121.824L286.59 123.462V126H283.998ZM298.638 126.252C295.812 126.252 293.616 124.308 293.616 120.978C293.616 117.702 295.92 115.686 298.296 115.686C301.086 115.686 302.508 117.702 302.508 120.492C302.508 120.996 302.454 121.464 302.4 121.716H296.172C296.406 123.372 297.486 124.218 298.98 124.218C299.79 124.218 300.51 123.966 301.248 123.516L302.13 125.154C301.14 125.838 299.88 126.252 298.638 126.252ZM296.136 119.952H300.258C300.258 118.584 299.646 117.72 298.35 117.72C297.288 117.72 296.352 118.476 296.136 119.952ZM308.078 126.252C305.684 126.252 304.766 124.74 304.766 122.49V118.008H303.362V116.046L304.928 115.938L305.216 113.202H307.412V115.938H309.914V118.008H307.412V122.49C307.412 123.642 307.898 124.182 308.78 124.182C309.122 124.182 309.5 124.056 309.788 123.948L310.22 125.874C309.68 126.054 308.978 126.252 308.078 126.252ZM311.983 126V115.938H314.629V126H311.983ZM313.297 114.3C312.379 114.3 311.767 113.724 311.767 112.842C311.767 111.978 312.379 111.42 313.297 111.42C314.215 111.42 314.845 111.978 314.845 112.842C314.845 113.724 314.215 114.3 313.297 114.3ZM317.449 126V115.938H319.591L319.807 117.27H319.861C320.725 116.406 321.769 115.686 323.137 115.686C325.297 115.686 326.251 117.198 326.251 119.718V126H323.605V120.06C323.605 118.476 323.155 117.954 322.183 117.954C321.355 117.954 320.833 118.35 320.095 119.07V126H317.449ZM332.509 130.374C330.151 130.374 328.315 129.564 328.315 127.8C328.315 126.954 328.819 126.216 329.755 125.712V125.622C329.233 125.28 328.837 124.74 328.837 123.912C328.837 123.156 329.341 122.472 329.971 122.04V121.968C329.269 121.464 328.603 120.51 328.603 119.322C328.603 116.946 330.547 115.686 332.671 115.686C333.247 115.686 333.787 115.776 334.201 115.938H337.837V117.882H336.109C336.379 118.224 336.577 118.782 336.577 119.394C336.577 121.68 334.849 122.814 332.671 122.814C332.275 122.814 331.825 122.742 331.375 122.58C331.105 122.832 330.943 123.048 330.943 123.462C330.943 123.984 331.357 124.29 332.527 124.29H334.255C336.685 124.29 338.017 125.028 338.017 126.81C338.017 128.844 335.875 130.374 332.509 130.374ZM332.671 121.194C333.553 121.194 334.255 120.51 334.255 119.322C334.255 118.134 333.571 117.486 332.671 117.486C331.789 117.486 331.087 118.134 331.087 119.322C331.087 120.51 331.789 121.194 332.671 121.194ZM332.923 128.7C334.435 128.7 335.461 128.034 335.461 127.26C335.461 126.54 334.867 126.342 333.787 126.342H332.563C331.951 126.342 331.537 126.306 331.177 126.198C330.709 126.576 330.511 126.972 330.511 127.386C330.511 128.232 331.447 128.7 332.923 128.7ZM345.455 126L342.863 115.938H345.491L346.607 120.906C346.787 121.896 346.913 122.85 347.093 123.84H347.183C347.363 122.85 347.543 121.878 347.795 120.906L349.019 115.938H351.359L352.619 120.906C352.853 121.896 353.051 122.85 353.267 123.84H353.357C353.537 122.85 353.663 121.896 353.861 120.906L354.941 115.938H357.407L354.905 126H351.791L350.729 121.608C350.513 120.672 350.351 119.754 350.153 118.674H350.063C349.883 119.754 349.721 120.672 349.505 121.626L348.479 126H345.455ZM359.338 126V115.938H361.984V126H359.338ZM360.652 114.3C359.734 114.3 359.122 113.724 359.122 112.842C359.122 111.978 359.734 111.42 360.652 111.42C361.57 111.42 362.2 111.978 362.2 112.842C362.2 113.724 361.57 114.3 360.652 114.3ZM368.477 126.252C366.083 126.252 365.165 124.74 365.165 122.49V118.008H363.761V116.046L365.327 115.938L365.615 113.202H367.811V115.938H370.313V118.008H367.811V122.49C367.811 123.642 368.297 124.182 369.179 124.182C369.521 124.182 369.899 124.056 370.187 123.948L370.619 125.874C370.079 126.054 369.377 126.252 368.477 126.252ZM372.381 126V111.654H375.027V115.272L374.901 117.162C375.693 116.406 376.701 115.686 378.069 115.686C380.229 115.686 381.183 117.198 381.183 119.718V126H378.537V120.06C378.537 118.476 378.087 117.954 377.115 117.954C376.287 117.954 375.765 118.35 375.027 119.07V126H372.381ZM392.239 126.252C389.467 126.252 387.343 124.308 387.343 120.978C387.343 117.63 389.737 115.686 392.473 115.686C393.733 115.686 394.669 116.154 395.407 116.802L394.165 118.494C393.661 118.062 393.175 117.846 392.635 117.846C391.069 117.846 390.043 119.07 390.043 120.978C390.043 122.868 391.087 124.11 392.527 124.11C393.265 124.11 393.949 123.75 394.507 123.3L395.551 125.046C394.597 125.874 393.355 126.252 392.239 126.252ZM401.044 126.252C398.506 126.252 396.202 124.308 396.202 120.978C396.202 117.63 398.506 115.686 401.044 115.686C403.564 115.686 405.868 117.63 405.868 120.978C405.868 124.308 403.564 126.252 401.044 126.252ZM401.044 124.11C402.412 124.11 403.168 122.868 403.168 120.978C403.168 119.07 402.412 117.846 401.044 117.846C399.658 117.846 398.902 119.07 398.902 120.978C398.902 122.868 399.658 124.11 401.044 124.11ZM411.646 126.252C409.126 126.252 407.506 124.29 407.506 120.978C407.506 117.684 409.576 115.686 411.736 115.686C412.87 115.686 413.572 116.1 414.31 116.766L414.202 115.182V111.654H416.848V126H414.688L414.49 124.956H414.436C413.698 125.694 412.69 126.252 411.646 126.252ZM412.312 124.074C413.032 124.074 413.626 123.786 414.202 123.048V118.62C413.608 118.062 412.96 117.846 412.33 117.846C411.196 117.846 410.224 118.926 410.224 120.942C410.224 123.048 410.998 124.074 412.312 124.074ZM419.684 126V115.938H422.33V126H419.684ZM420.998 114.3C420.08 114.3 419.468 113.724 419.468 112.842C419.468 111.978 420.08 111.42 420.998 111.42C421.916 111.42 422.546 111.978 422.546 112.842C422.546 113.724 421.916 114.3 420.998 114.3ZM425.151 126V115.938H427.293L427.509 117.27H427.563C428.427 116.406 429.471 115.686 430.839 115.686C432.999 115.686 433.953 117.198 433.953 119.718V126H431.307V120.06C431.307 118.476 430.857 117.954 429.885 117.954C429.057 117.954 428.535 118.35 427.797 119.07V126H425.151ZM440.21 130.374C437.852 130.374 436.016 129.564 436.016 127.8C436.016 126.954 436.52 126.216 437.456 125.712V125.622C436.934 125.28 436.538 124.74 436.538 123.912C436.538 123.156 437.042 122.472 437.672 122.04V121.968C436.97 121.464 436.304 120.51 436.304 119.322C436.304 116.946 438.248 115.686 440.372 115.686C440.948 115.686 441.488 115.776 441.902 115.938H445.538V117.882H443.81C444.08 118.224 444.278 118.782 444.278 119.394C444.278 121.68 442.55 122.814 440.372 122.814C439.976 122.814 439.526 122.742 439.076 122.58C438.806 122.832 438.644 123.048 438.644 123.462C438.644 123.984 439.058 124.29 440.228 124.29H441.956C444.386 124.29 445.718 125.028 445.718 126.81C445.718 128.844 443.576 130.374 440.21 130.374ZM440.372 121.194C441.254 121.194 441.956 120.51 441.956 119.322C441.956 118.134 441.272 117.486 440.372 117.486C439.49 117.486 438.788 118.134 438.788 119.322C438.788 120.51 439.49 121.194 440.372 121.194ZM440.624 128.7C442.136 128.7 443.162 128.034 443.162 127.26C443.162 126.54 442.568 126.342 441.488 126.342H440.264C439.652 126.342 439.238 126.306 438.878 126.198C438.41 126.576 438.212 126.972 438.212 127.386C438.212 128.232 439.148 128.7 440.624 128.7Z" fill="#25609B"/>
</svg>
